<svg viewBox="0 0 640 512" fill="currentColor" xmlns="http://www.w3.org/2000/svg">
  <path d="M528 448H320V153.3c12.4-8.7 20-22.8 20-38.4 
  0-26.5-21.5-48-48-48s-48 21.5-48 48c0 
  15.6 7.6 29.7 20 38.4V448H112c-17.7 
  0-32 14.3-32 32s14.3 32 32 32h416c17.7 
  0 32-14.3 32-32s-14.3-32-32-32zM144 
  144h96c8.8 0 16-7.2 16-16V96h32v32c0 
  8.8 7.2 16 16 16h96c8.8 0 16-7.2 
  16-16V96h32v32c0 8.8 7.2 16 
  16 16h32c17.7 0 32 14.3 32 
  32v16H112v-16c0-17.7 14.3-32 
  32-32h0zM176 288c0 53-43 96-96 
  96S-16 341  -16 288s43-96 96-96 96 
  43 96 96zm384 0c0 53-43 96-96 
  96s-96-43-96-96 43-96 96-96 
  96 43 96 96z"></path>
</svg>
