<svg viewBox="0 0 512 512" fill="currentColor" xmlns="http://www.w3.org/2000/svg">
  <path d="M500 384c6.6 0 12 5.4 12 12v20c0 
  6.6-5.4 12-12 12H12c-6.6 0-12-5.4-12-12V44c0-6.6 
  5.4-12 12-12h20c6.6 0 12 5.4 12 12v316h456zM464 
  96c0 6.6-5.4 12-12 12h-78.1l-86.4 136.7c-9.2 
  14.6-29.9 14.9-39.6 .5L179.9 192l-63.3 
  95.8c-3.4 5.2-9.1 8.2-15.3 8.2H24c-13.3 
  0-21.4-14.9-14.3-25.9l80-128c9.2-14.6 
  29.9-14.9 39.6-.5L210.1 224l74.3-117.6c3.4-5.2 
  9.1-8.2 15.3-8.2H452c6.6 0 12 5.4 12 12v-14z"></path>
</svg>
