<svg viewBox="0 0 576 512" fill="currentColor" xmlns="http://www.w3.org/2000/svg">
  <path d="M280.4 148.3L96 300.1V464c0 
  26.5 21.5 48 48 48H232c8.8 0 16-7.2 
  16-16V368c0-13.3 10.7-24 24-24h32c13.3 
  0 24 10.7 24 24v128c0 8.8 7.2 16 
  16 16H432c26.5 0 48-21.5 
  48-48V300L295.6 148.3c-6.7-5.5-16.4-5.5-23.2 
  0zM571.6 251.5L488 182.6V44c0-6.6-5.4-12-12-12h-56c-6.6 
  0-12 5.4-12 12v72.6L318.5 43c-27-22.3-66-22.3-93 
  0L4.4 251.5c-5.1 4.2-5.8 11.8-1.6 
  16.9l21.4 25.9c4.2 5.1 11.8 5.8 16.9 1.6L64 
  270.4V464c0 26.5 21.5 48 48 
  48H232c8.8 0 16-7.2 16-16V368c0-13.3 
  10.7-24 24-24h32c13.3 0 24 
  10.7 24 24v128c0 8.8 7.2 16 16 
  16H432c26.5 0 48-21.5 
  48-48V270.4l22.9 19.6c5.1 4.2 12.7 3.5 
  16.9-1.6l21.4-25.9c4.2-5.1 3.5-12.7-1.6-16.9z"></path>
</svg>
