<svg viewBox="0 0 352 512" fill="currentColor" xmlns="http://www.w3.org/2000/svg">
  <path d="M176 0C78.8 0 0 78.8 0 176c0 44.2 16.1 84.6 42.7 115.7 16.8 
  19.9 42.6 53.6 52.7 80.3V416c0 17.7 14.3 32 32 
  32h16v16c0 17.7 14.3 32 32 32h32c17.7 
  0 32-14.3 32-32V448h16c17.7 0 32-14.3 
  32-32v-44c10.1-26.7 35.9-60.4 52.7-80.3C335.9 
  260.6 352 220.2 352 176 352 78.8 273.2 0 176 0zM96 
  176c0-44.1 35.9-80 80-80s80 35.9 80 80c0 26.4-13.2 
  50.9-35.3 65.6C204.8 255.6 192 276.3 192 
  299.1V304h-32v-4.9c0-22.8-12.8-43.5-28.7-57.5C109.2 
  226.9 96 202.4 96 176z"></path>
</svg>
