<svg xmlns="http://www.w3.org/2000/svg" xmlns:xlink="http://www.w3.org/1999/xlink" width="360" zoomAndPan="magnify" viewBox="0 0 270 60" height="80" preserveAspectRatio="xMidYMid meet" version="1.0"><defs><g/><clipPath id="51786d506a"><path d="M 1.09375 34 L 9 34 L 9 47.601562 L 1.09375 47.601562 Z M 1.09375 34 " clip-rule="nonzero"/></clipPath><clipPath id="4fed585c9f"><path d="M 10 34 L 28 34 L 28 47.601562 L 10 47.601562 Z M 10 34 " clip-rule="nonzero"/></clipPath><clipPath id="8295ab55b2"><path d="M 28 34 L 36.191406 34 L 36.191406 47.601562 L 28 47.601562 Z M 28 34 " clip-rule="nonzero"/></clipPath><clipPath id="aace4723ee"><path d="M 17 1.039062 L 20 1.039062 L 20 4 L 17 4 Z M 17 1.039062 " clip-rule="nonzero"/></clipPath><clipPath id="3f8c8e02fc"><path d="M 42 6 L 268 6 L 268 56.121094 L 42 56.121094 Z M 42 6 " clip-rule="nonzero"/></clipPath><clipPath id="ecafeeb0c9"><rect x="0" width="226" y="0" height="51"/></clipPath><clipPath id="8d2d252edb"><rect x="0" width="268" y="0" height="57"/></clipPath></defs><g transform="matrix(1, 0, 0, 1, 2, 1)"><g clip-path="url(#8d2d252edb)"><path fill="#ffffff" d="M 29.148438 16.542969 C 29.140625 16.519531 29.136719 16.496094 29.136719 16.472656 C 29.082031 16.199219 28.980469 15.9375 28.835938 15.699219 C 28.691406 15.457031 28.511719 15.25 28.292969 15.070312 C 28.078125 14.894531 27.835938 14.757812 27.570312 14.660156 C 27.308594 14.566406 27.035156 14.519531 26.753906 14.519531 L 10.363281 14.519531 C 10.039062 14.519531 9.730469 14.582031 9.433594 14.703125 C 9.136719 14.828125 8.875 15.003906 8.648438 15.230469 C 8.417969 15.457031 8.246094 15.71875 8.121094 16.019531 C 7.996094 16.316406 7.9375 16.625 7.933594 16.945312 L 7.933594 25.914062 C 7.9375 26.234375 7.996094 26.542969 8.121094 26.839844 C 8.246094 27.136719 8.417969 27.398438 8.648438 27.628906 C 8.875 27.855469 9.136719 28.03125 9.433594 28.152344 C 9.730469 28.277344 10.039062 28.339844 10.363281 28.339844 L 26.753906 28.339844 C 27.078125 28.339844 27.386719 28.277344 27.683594 28.152344 C 27.980469 28.03125 28.242188 27.855469 28.46875 27.628906 C 28.699219 27.398438 28.871094 27.136719 28.996094 26.839844 C 29.121094 26.542969 29.179688 26.234375 29.183594 25.914062 L 29.183594 16.945312 C 29.183594 16.808594 29.171875 16.675781 29.148438 16.542969 Z M 13.539062 23.289062 C 13.128906 23.289062 12.734375 23.210938 12.355469 23.054688 C 11.976562 22.898438 11.644531 22.675781 11.351562 22.386719 C 11.0625 22.09375 10.839844 21.761719 10.683594 21.382812 C 10.527344 21.003906 10.449219 20.609375 10.449219 20.199219 C 10.449219 19.789062 10.527344 19.394531 10.683594 19.019531 C 10.839844 18.640625 11.0625 18.304688 11.351562 18.015625 C 11.644531 17.726562 11.976562 17.503906 12.355469 17.34375 C 12.734375 17.1875 13.128906 17.109375 13.539062 17.109375 C 13.949219 17.109375 14.339844 17.1875 14.71875 17.347656 C 15.097656 17.503906 15.433594 17.726562 15.722656 18.015625 C 16.011719 18.304688 16.234375 18.640625 16.390625 19.019531 C 16.546875 19.398438 16.625 19.792969 16.625 20.199219 C 16.625 20.609375 16.546875 21.003906 16.390625 21.382812 C 16.234375 21.761719 16.011719 22.09375 15.722656 22.382812 C 15.429688 22.671875 15.097656 22.894531 14.71875 23.054688 C 14.339844 23.210938 13.949219 23.289062 13.539062 23.289062 Z M 23.578125 23.289062 C 23.167969 23.289062 22.773438 23.210938 22.398438 23.054688 C 22.019531 22.898438 21.683594 22.675781 21.394531 22.382812 C 21.105469 22.09375 20.882812 21.761719 20.726562 21.382812 C 20.566406 21.003906 20.488281 20.609375 20.488281 20.199219 C 20.488281 19.789062 20.566406 19.394531 20.726562 19.015625 C 20.882812 18.640625 21.105469 18.304688 21.394531 18.015625 C 21.683594 17.726562 22.019531 17.503906 22.398438 17.34375 C 22.777344 17.1875 23.167969 17.109375 23.578125 17.109375 C 23.988281 17.109375 24.382812 17.1875 24.761719 17.347656 C 25.140625 17.503906 25.472656 17.726562 25.765625 18.015625 C 26.054688 18.304688 26.277344 18.640625 26.433594 19.019531 C 26.589844 19.398438 26.667969 19.792969 26.667969 20.199219 C 26.667969 20.609375 26.589844 21.003906 26.433594 21.382812 C 26.273438 21.761719 26.050781 22.09375 25.761719 22.382812 C 25.472656 22.671875 25.136719 22.894531 24.761719 23.054688 C 24.382812 23.210938 23.988281 23.289062 23.578125 23.289062 Z M 23.578125 23.289062 " fill-opacity="1" fill-rule="nonzero"/><path fill="#ffffff" d="M 25 20.199219 C 25 20.390625 24.964844 20.570312 24.890625 20.746094 C 24.820312 20.917969 24.71875 21.074219 24.582031 21.207031 C 24.449219 21.339844 24.296875 21.441406 24.121094 21.515625 C 23.949219 21.585938 23.765625 21.621094 23.578125 21.621094 C 23.390625 21.621094 23.210938 21.585938 23.035156 21.515625 C 22.859375 21.441406 22.707031 21.339844 22.574219 21.207031 C 22.441406 21.074219 22.339844 20.917969 22.265625 20.746094 C 22.195312 20.570312 22.15625 20.390625 22.15625 20.199219 C 22.15625 20.011719 22.195312 19.832031 22.265625 19.65625 C 22.339844 19.484375 22.441406 19.328125 22.574219 19.195312 C 22.707031 19.0625 22.859375 18.960938 23.035156 18.886719 C 23.210938 18.816406 23.390625 18.78125 23.578125 18.78125 C 23.765625 18.78125 23.949219 18.816406 24.121094 18.886719 C 24.296875 18.960938 24.449219 19.0625 24.582031 19.195312 C 24.714844 19.328125 24.820312 19.484375 24.890625 19.65625 C 24.964844 19.832031 25 20.011719 25 20.199219 Z M 25 20.199219 " fill-opacity="1" fill-rule="nonzero"/><path fill="#ffffff" d="M 14.957031 20.199219 C 14.957031 20.390625 14.921875 20.570312 14.851562 20.746094 C 14.777344 20.917969 14.675781 21.074219 14.542969 21.207031 C 14.410156 21.339844 14.253906 21.441406 14.082031 21.515625 C 13.90625 21.585938 13.726562 21.621094 13.535156 21.621094 C 13.347656 21.621094 13.167969 21.585938 12.992188 21.511719 C 12.820312 21.441406 12.664062 21.339844 12.53125 21.207031 C 12.398438 21.070312 12.296875 20.917969 12.222656 20.746094 C 12.152344 20.570312 12.117188 20.386719 12.117188 20.199219 C 12.117188 20.011719 12.152344 19.832031 12.226562 19.65625 C 12.296875 19.480469 12.398438 19.328125 12.53125 19.195312 C 12.667969 19.0625 12.820312 18.960938 12.996094 18.886719 C 13.167969 18.816406 13.351562 18.78125 13.539062 18.78125 C 13.726562 18.78125 13.90625 18.816406 14.082031 18.886719 C 14.253906 18.960938 14.410156 19.0625 14.542969 19.195312 C 14.675781 19.328125 14.777344 19.484375 14.851562 19.65625 C 14.921875 19.832031 14.957031 20.011719 14.957031 20.199219 Z M 14.957031 20.199219 " fill-opacity="1" fill-rule="nonzero"/><g clip-path="url(#51786d506a)"><path fill="#ffffff" d="M 8.414062 34.890625 L 8.414062 47.332031 L 1.113281 47.332031 L 1.113281 42.847656 C 1.113281 42.351562 1.160156 41.863281 1.25 41.375 C 1.34375 40.886719 1.476562 40.414062 1.660156 39.953125 C 1.839844 39.492188 2.058594 39.050781 2.320312 38.628906 C 2.582031 38.210938 2.882812 37.816406 3.21875 37.453125 C 3.550781 37.085938 3.917969 36.753906 4.316406 36.457031 C 4.710938 36.160156 5.132812 35.902344 5.578125 35.683594 C 6.019531 35.464844 6.480469 35.289062 6.957031 35.15625 C 7.4375 35.023438 7.921875 34.933594 8.414062 34.890625 Z M 8.414062 34.890625 " fill-opacity="1" fill-rule="nonzero"/></g><g clip-path="url(#4fed585c9f)"><path fill="#ffffff" d="M 10.082031 34.863281 L 27.035156 34.863281 L 27.035156 47.332031 L 10.082031 47.332031 Z M 10.082031 34.863281 " fill-opacity="1" fill-rule="nonzero"/></g><g clip-path="url(#8295ab55b2)"><path fill="#ffffff" d="M 36.007812 42.847656 L 36.007812 47.332031 L 28.707031 47.332031 L 28.707031 34.890625 C 29.199219 34.9375 29.6875 35.023438 30.164062 35.15625 C 30.640625 35.289062 31.101562 35.46875 31.542969 35.6875 C 31.988281 35.90625 32.410156 36.164062 32.804688 36.460938 C 33.203125 36.757812 33.566406 37.089844 33.902344 37.453125 C 34.238281 37.816406 34.535156 38.210938 34.796875 38.632812 C 35.058594 39.050781 35.28125 39.492188 35.460938 39.953125 C 35.640625 40.414062 35.773438 40.890625 35.867188 41.375 C 35.960938 41.863281 36.003906 42.351562 36.007812 42.847656 Z M 36.007812 42.847656 " fill-opacity="1" fill-rule="nonzero"/></g><path fill="#ffffff" d="M 12.804688 30.003906 L 24.3125 30.003906 L 24.3125 33.195312 L 12.804688 33.195312 Z M 12.804688 30.003906 " fill-opacity="1" fill-rule="nonzero"/><path fill="#ffffff" d="M 6.265625 17.277344 L 6.265625 25.570312 C 5.84375 25.484375 5.441406 25.339844 5.066406 25.128906 C 4.6875 24.921875 4.347656 24.664062 4.046875 24.351562 C 3.75 24.039062 3.503906 23.691406 3.3125 23.304688 C 3.121094 22.917969 2.992188 22.511719 2.921875 22.085938 C 2.855469 21.660156 2.855469 21.230469 2.917969 20.804688 C 2.980469 20.378906 3.105469 19.96875 3.292969 19.582031 C 3.484375 19.191406 3.722656 18.839844 4.019531 18.527344 C 4.316406 18.210938 4.652344 17.949219 5.027344 17.738281 C 5.417969 17.519531 5.828125 17.367188 6.265625 17.277344 Z M 6.265625 17.277344 " fill-opacity="1" fill-rule="nonzero"/><path fill="#ffffff" d="M 34.246094 21.425781 C 34.246094 21.914062 34.164062 22.386719 34 22.847656 C 33.832031 23.304688 33.597656 23.726562 33.289062 24.101562 C 32.976562 24.480469 32.613281 24.796875 32.195312 25.046875 C 31.777344 25.300781 31.328125 25.472656 30.851562 25.570312 L 30.851562 17.277344 C 31.289062 17.363281 31.703125 17.515625 32.089844 17.734375 C 32.753906 18.113281 33.28125 18.628906 33.667969 19.289062 C 34.050781 19.949219 34.246094 20.660156 34.246094 21.425781 Z M 34.246094 21.425781 " fill-opacity="1" fill-rule="nonzero"/><path fill="#ffffff" d="M 22.785156 12.847656 L 14.332031 12.847656 C 14.429688 12.355469 14.605469 11.898438 14.863281 11.46875 C 15.117188 11.042969 15.4375 10.667969 15.824219 10.351562 C 16.207031 10.035156 16.636719 9.792969 17.105469 9.625 C 17.574219 9.457031 18.058594 9.371094 18.558594 9.371094 C 19.058594 9.371094 19.542969 9.457031 20.011719 9.625 C 20.480469 9.792969 20.910156 10.035156 21.292969 10.351562 C 21.679688 10.667969 22 11.042969 22.253906 11.46875 C 22.511719 11.898438 22.6875 12.355469 22.785156 12.847656 Z M 22.785156 12.847656 " fill-opacity="1" fill-rule="nonzero"/><g clip-path="url(#aace4723ee)"><path fill="#ffffff" d="M 19.707031 2.1875 C 19.707031 2.339844 19.675781 2.484375 19.617188 2.625 C 19.558594 2.765625 19.476562 2.890625 19.371094 2.996094 C 19.261719 3.105469 19.136719 3.1875 18.996094 3.246094 C 18.855469 3.304688 18.710938 3.332031 18.558594 3.332031 C 18.40625 3.332031 18.261719 3.304688 18.121094 3.246094 C 17.980469 3.1875 17.855469 3.105469 17.746094 2.996094 C 17.640625 2.890625 17.558594 2.765625 17.5 2.625 C 17.441406 2.484375 17.410156 2.339844 17.410156 2.1875 C 17.410156 2.035156 17.441406 1.886719 17.5 1.746094 C 17.558594 1.605469 17.640625 1.484375 17.746094 1.375 C 17.855469 1.269531 17.980469 1.183594 18.121094 1.125 C 18.261719 1.070312 18.40625 1.039062 18.558594 1.039062 C 18.710938 1.039062 18.855469 1.070312 18.996094 1.125 C 19.136719 1.183594 19.261719 1.269531 19.371094 1.375 C 19.476562 1.484375 19.558594 1.605469 19.617188 1.746094 C 19.675781 1.886719 19.707031 2.035156 19.707031 2.1875 Z M 19.707031 2.1875 " fill-opacity="1" fill-rule="nonzero"/></g><path fill="#ffffff" d="M 19.394531 4.875 L 19.394531 7.761719 C 18.835938 7.683594 18.28125 7.683594 17.722656 7.761719 L 17.722656 4.875 C 18.28125 5.046875 18.835938 5.046875 19.394531 4.875 Z M 19.394531 4.875 " fill-opacity="1" fill-rule="nonzero"/><g clip-path="url(#3f8c8e02fc)"><g transform="matrix(1, 0, 0, 1, 42, 6)"><g clip-path="url(#ecafeeb0c9)"><g fill="#ffffff" fill-opacity="1"><g transform="translate(0.569957, 36.955576)"><g><path d="M 29.875 0 L 29.84375 -17.4375 L 21.296875 -3.078125 L 18.265625 -3.078125 L 9.75 -17.0625 L 9.75 0 L 3.4375 0 L 3.4375 -29.046875 L 9 -29.046875 L 19.875 -11 L 30.578125 -29.046875 L 36.109375 -29.046875 L 36.1875 0 Z M 29.875 0 "/></g></g></g><g fill="#ffffff" fill-opacity="1"><g transform="translate(40.198556, 36.955576)"><g><path d="M 24.859375 -11.078125 C 24.859375 -10.992188 24.816406 -10.414062 24.734375 -9.34375 L 7.84375 -9.34375 C 8.144531 -7.957031 8.863281 -6.863281 10 -6.0625 C 11.132812 -5.257812 12.546875 -4.859375 14.234375 -4.859375 C 15.398438 -4.859375 16.429688 -5.03125 17.328125 -5.375 C 18.222656 -5.71875 19.0625 -6.265625 19.84375 -7.015625 L 23.28125 -3.28125 C 21.175781 -0.875 18.101562 0.328125 14.0625 0.328125 C 11.550781 0.328125 9.328125 -0.160156 7.390625 -1.140625 C 5.453125 -2.117188 3.957031 -3.476562 2.90625 -5.21875 C 1.851562 -6.96875 1.328125 -8.945312 1.328125 -11.15625 C 1.328125 -13.34375 1.84375 -15.316406 2.875 -17.078125 C 3.914062 -18.835938 5.34375 -20.207031 7.15625 -21.1875 C 8.96875 -22.164062 10.992188 -22.65625 13.234375 -22.65625 C 15.421875 -22.65625 17.398438 -22.1875 19.171875 -21.25 C 20.941406 -20.3125 22.332031 -18.960938 23.34375 -17.203125 C 24.351562 -15.441406 24.859375 -13.398438 24.859375 -11.078125 Z M 13.28125 -17.765625 C 11.8125 -17.765625 10.578125 -17.347656 9.578125 -16.515625 C 8.585938 -15.679688 7.984375 -14.546875 7.765625 -13.109375 L 18.765625 -13.109375 C 18.535156 -14.523438 17.921875 -15.65625 16.921875 -16.5 C 15.929688 -17.34375 14.71875 -17.765625 13.28125 -17.765625 Z M 13.28125 -17.765625 "/></g></g></g><g fill="#ffffff" fill-opacity="1"><g transform="translate(65.760038, 36.955576)"><g><path d="M 12 -22.65625 C 15.457031 -22.65625 18.109375 -21.832031 19.953125 -20.1875 C 21.804688 -18.539062 22.734375 -16.054688 22.734375 -12.734375 L 22.734375 0 L 16.6875 0 L 16.6875 -2.78125 C 15.46875 -0.707031 13.195312 0.328125 9.875 0.328125 C 8.15625 0.328125 6.664062 0.0390625 5.40625 -0.53125 C 4.15625 -1.113281 3.195312 -1.914062 2.53125 -2.9375 C 1.863281 -3.96875 1.53125 -5.132812 1.53125 -6.4375 C 1.53125 -8.507812 2.3125 -10.140625 3.875 -11.328125 C 5.4375 -12.515625 7.851562 -13.109375 11.125 -13.109375 L 16.265625 -13.109375 C 16.265625 -14.523438 15.832031 -15.613281 14.96875 -16.375 C 14.113281 -17.132812 12.832031 -17.515625 11.125 -17.515625 C 9.9375 -17.515625 8.765625 -17.328125 7.609375 -16.953125 C 6.460938 -16.578125 5.488281 -16.070312 4.6875 -15.4375 L 2.359375 -19.96875 C 3.578125 -20.820312 5.035156 -21.484375 6.734375 -21.953125 C 8.441406 -22.421875 10.195312 -22.65625 12 -22.65625 Z M 11.5 -4.03125 C 12.601562 -4.03125 13.582031 -4.285156 14.4375 -4.796875 C 15.300781 -5.304688 15.910156 -6.0625 16.265625 -7.0625 L 16.265625 -9.34375 L 11.828125 -9.34375 C 9.171875 -9.34375 7.84375 -8.46875 7.84375 -6.71875 C 7.84375 -5.894531 8.164062 -5.238281 8.8125 -4.75 C 9.46875 -4.269531 10.363281 -4.03125 11.5 -4.03125 Z M 11.5 -4.03125 "/></g></g></g><g fill="#ffffff" fill-opacity="1"><g transform="translate(91.363032, 36.955576)"><g><path d="M 10.5 0.328125 C 8.644531 0.328125 6.832031 0.101562 5.0625 -0.34375 C 3.289062 -0.800781 1.878906 -1.378906 0.828125 -2.078125 L 2.984375 -6.71875 C 3.984375 -6.082031 5.1875 -5.5625 6.59375 -5.15625 C 8.007812 -4.757812 9.394531 -4.5625 10.75 -4.5625 C 13.488281 -4.5625 14.859375 -5.238281 14.859375 -6.59375 C 14.859375 -7.226562 14.484375 -7.6875 13.734375 -7.96875 C 12.984375 -8.25 11.835938 -8.484375 10.296875 -8.671875 C 8.460938 -8.953125 6.953125 -9.269531 5.765625 -9.625 C 4.578125 -9.988281 3.546875 -10.625 2.671875 -11.53125 C 1.804688 -12.445312 1.375 -13.75 1.375 -15.4375 C 1.375 -16.84375 1.78125 -18.09375 2.59375 -19.1875 C 3.40625 -20.28125 4.59375 -21.128906 6.15625 -21.734375 C 7.71875 -22.347656 9.566406 -22.65625 11.703125 -22.65625 C 13.273438 -22.65625 14.84375 -22.484375 16.40625 -22.140625 C 17.976562 -21.796875 19.273438 -21.316406 20.296875 -20.703125 L 18.140625 -16.109375 C 16.171875 -17.210938 14.023438 -17.765625 11.703125 -17.765625 C 10.316406 -17.765625 9.273438 -17.566406 8.578125 -17.171875 C 7.890625 -16.785156 7.546875 -16.289062 7.546875 -15.6875 C 7.546875 -15 7.921875 -14.515625 8.671875 -14.234375 C 9.421875 -13.953125 10.613281 -13.691406 12.25 -13.453125 C 14.070312 -13.140625 15.5625 -12.8125 16.71875 -12.46875 C 17.882812 -12.125 18.894531 -11.492188 19.75 -10.578125 C 20.613281 -9.671875 21.046875 -8.398438 21.046875 -6.765625 C 21.046875 -5.378906 20.628906 -4.144531 19.796875 -3.0625 C 18.960938 -1.988281 17.75 -1.15625 16.15625 -0.5625 C 14.570312 0.03125 12.6875 0.328125 10.5 0.328125 Z M 10.5 0.328125 "/></g></g></g><g fill="#ffffff" fill-opacity="1"><g transform="translate(113.397366, 36.955576)"><g><path d="M 25.484375 -22.328125 L 25.484375 0 L 19.34375 0 L 19.34375 -2.65625 C 18.476562 -1.6875 17.453125 -0.945312 16.265625 -0.4375 C 15.078125 0.0703125 13.789062 0.328125 12.40625 0.328125 C 9.476562 0.328125 7.15625 -0.515625 5.4375 -2.203125 C 3.71875 -3.890625 2.859375 -6.394531 2.859375 -9.71875 L 2.859375 -22.328125 L 9.34375 -22.328125 L 9.34375 -10.671875 C 9.34375 -7.066406 10.847656 -5.265625 13.859375 -5.265625 C 15.410156 -5.265625 16.65625 -5.769531 17.59375 -6.78125 C 18.53125 -7.789062 19 -9.289062 19 -11.28125 L 19 -22.328125 Z M 25.484375 -22.328125 "/></g></g></g><g fill="#ffffff" fill-opacity="1"><g transform="translate(141.905056, 36.955576)"><g><path d="M 9.171875 -19.375 C 9.941406 -20.457031 10.984375 -21.273438 12.296875 -21.828125 C 13.617188 -22.378906 15.132812 -22.65625 16.84375 -22.65625 L 16.84375 -16.6875 C 16.125 -16.738281 15.640625 -16.765625 15.390625 -16.765625 C 13.535156 -16.765625 12.082031 -16.242188 11.03125 -15.203125 C 9.988281 -14.171875 9.46875 -12.617188 9.46875 -10.546875 L 9.46875 0 L 2.984375 0 L 2.984375 -22.328125 L 9.171875 -22.328125 Z M 9.171875 -19.375 "/></g></g></g><g fill="#ffffff" fill-opacity="1"><g transform="translate(159.416336, 36.955576)"><g><path d="M 24.859375 -11.078125 C 24.859375 -10.992188 24.816406 -10.414062 24.734375 -9.34375 L 7.84375 -9.34375 C 8.144531 -7.957031 8.863281 -6.863281 10 -6.0625 C 11.132812 -5.257812 12.546875 -4.859375 14.234375 -4.859375 C 15.398438 -4.859375 16.429688 -5.03125 17.328125 -5.375 C 18.222656 -5.71875 19.0625 -6.265625 19.84375 -7.015625 L 23.28125 -3.28125 C 21.175781 -0.875 18.101562 0.328125 14.0625 0.328125 C 11.550781 0.328125 9.328125 -0.160156 7.390625 -1.140625 C 5.453125 -2.117188 3.957031 -3.476562 2.90625 -5.21875 C 1.851562 -6.96875 1.328125 -8.945312 1.328125 -11.15625 C 1.328125 -13.34375 1.84375 -15.316406 2.875 -17.078125 C 3.914062 -18.835938 5.34375 -20.207031 7.15625 -21.1875 C 8.96875 -22.164062 10.992188 -22.65625 13.234375 -22.65625 C 15.421875 -22.65625 17.398438 -22.1875 19.171875 -21.25 C 20.941406 -20.3125 22.332031 -18.960938 23.34375 -17.203125 C 24.351562 -15.441406 24.859375 -13.398438 24.859375 -11.078125 Z M 13.28125 -17.765625 C 11.8125 -17.765625 10.578125 -17.347656 9.578125 -16.515625 C 8.585938 -15.679688 7.984375 -14.546875 7.765625 -13.109375 L 18.765625 -13.109375 C 18.535156 -14.523438 17.921875 -15.65625 16.921875 -16.5 C 15.929688 -17.34375 14.71875 -17.765625 13.28125 -17.765625 Z M 13.28125 -17.765625 "/></g></g></g><g fill="#ffffff" fill-opacity="1"><g transform="translate(185.60027, 36.955576)"><g><path d="M 2.984375 -30.796875 L 9.46875 -30.796875 L 9.46875 0 L 2.984375 0 Z M 2.984375 -30.796875 "/></g></g></g><g fill="#ffffff" fill-opacity="1"><g transform="translate(198.090541, 36.955576)"><g><path d="M 25.15625 -22.328125 L 15.0625 1.375 C 14.039062 3.945312 12.773438 5.757812 11.265625 6.8125 C 9.753906 7.863281 7.9375 8.390625 5.8125 8.390625 C 4.644531 8.390625 3.492188 8.207031 2.359375 7.84375 C 1.222656 7.476562 0.296875 6.976562 -0.421875 6.34375 L 1.953125 1.75 C 2.453125 2.1875 3.023438 2.53125 3.671875 2.78125 C 4.316406 3.03125 4.960938 3.15625 5.609375 3.15625 C 6.492188 3.15625 7.210938 2.941406 7.765625 2.515625 C 8.316406 2.085938 8.8125 1.375 9.25 0.375 L 9.34375 0.171875 L -0.328125 -22.328125 L 6.34375 -22.328125 L 12.609375 -7.171875 L 18.921875 -22.328125 Z M 25.15625 -22.328125 "/></g></g></g></g></g></g></g></g></svg>