<svg xmlns="http://www.w3.org/2000/svg" xmlns:xlink="http://www.w3.org/1999/xlink" width="360" zoomAndPan="magnify" viewBox="0 0 270 60" height="80" preserveAspectRatio="xMidYMid meet" version="1.0"><defs><g/><clipPath id="224e234a8e"><path d="M 3.09375 35 L 11 35 L 11 48.539062 L 3.09375 48.539062 Z M 3.09375 35 " clip-rule="nonzero"/></clipPath><clipPath id="d29031d596"><path d="M 12 35 L 30 35 L 30 48.539062 L 12 48.539062 Z M 12 35 " clip-rule="nonzero"/></clipPath><clipPath id="283463afd8"><path d="M 30 35 L 38.34375 35 L 38.34375 48.539062 L 30 48.539062 Z M 30 35 " clip-rule="nonzero"/></clipPath><clipPath id="051f7f1351"><path d="M 19 2.039062 L 22 2.039062 L 22 5 L 19 5 Z M 19 2.039062 " clip-rule="nonzero"/></clipPath><clipPath id="f7f119c4c8"><rect x="0" width="224" y="0" height="50"/></clipPath></defs><path fill="#ffffff" d="M 31.148438 17.542969 C 31.144531 17.519531 31.136719 17.496094 31.136719 17.472656 C 31.082031 17.195312 30.980469 16.9375 30.835938 16.699219 C 30.691406 16.457031 30.511719 16.246094 30.292969 16.070312 C 30.078125 15.890625 29.835938 15.753906 29.574219 15.660156 C 29.308594 15.566406 29.035156 15.519531 28.753906 15.519531 L 12.363281 15.519531 C 12.042969 15.519531 11.734375 15.582031 11.4375 15.703125 C 11.140625 15.828125 10.875 16.003906 10.648438 16.230469 C 10.421875 16.457031 10.246094 16.71875 10.121094 17.015625 C 10 17.3125 9.9375 17.621094 9.9375 17.945312 L 9.9375 26.910156 C 9.9375 27.230469 10 27.542969 10.121094 27.839844 C 10.246094 28.136719 10.421875 28.398438 10.648438 28.625 C 10.875 28.851562 11.140625 29.027344 11.4375 29.152344 C 11.734375 29.273438 12.042969 29.335938 12.363281 29.335938 L 28.753906 29.335938 C 29.078125 29.335938 29.386719 29.273438 29.683594 29.152344 C 29.980469 29.027344 30.242188 28.851562 30.46875 28.625 C 30.699219 28.398438 30.875 28.136719 30.996094 27.839844 C 31.121094 27.542969 31.183594 27.230469 31.183594 26.910156 L 31.183594 17.945312 C 31.183594 17.808594 31.171875 17.675781 31.148438 17.542969 Z M 15.539062 24.289062 C 15.128906 24.289062 14.734375 24.210938 14.359375 24.050781 C 13.980469 23.894531 13.644531 23.671875 13.355469 23.382812 C 13.066406 23.09375 12.84375 22.757812 12.683594 22.382812 C 12.527344 22.003906 12.449219 21.609375 12.449219 21.199219 C 12.449219 20.789062 12.527344 20.394531 12.683594 20.015625 C 12.839844 19.636719 13.066406 19.304688 13.355469 19.015625 C 13.644531 18.722656 13.976562 18.5 14.355469 18.34375 C 14.734375 18.1875 15.128906 18.109375 15.539062 18.109375 C 15.949219 18.109375 16.34375 18.1875 16.722656 18.34375 C 17.101562 18.5 17.433594 18.726562 17.722656 19.015625 C 18.011719 19.304688 18.238281 19.636719 18.394531 20.015625 C 18.550781 20.394531 18.628906 20.789062 18.628906 21.199219 C 18.628906 21.609375 18.546875 22.003906 18.390625 22.378906 C 18.234375 22.757812 18.011719 23.09375 17.722656 23.382812 C 17.433594 23.671875 17.097656 23.894531 16.722656 24.050781 C 16.34375 24.207031 15.949219 24.285156 15.539062 24.289062 Z M 25.578125 24.289062 C 25.171875 24.289062 24.777344 24.210938 24.398438 24.050781 C 24.019531 23.894531 23.683594 23.671875 23.394531 23.382812 C 23.105469 23.09375 22.882812 22.757812 22.726562 22.378906 C 22.570312 22 22.492188 21.609375 22.492188 21.199219 C 22.492188 20.789062 22.570312 20.394531 22.726562 20.015625 C 22.882812 19.636719 23.105469 19.304688 23.394531 19.015625 C 23.683594 18.722656 24.019531 18.5 24.398438 18.34375 C 24.777344 18.1875 25.171875 18.109375 25.582031 18.109375 C 25.988281 18.109375 26.382812 18.1875 26.761719 18.34375 C 27.140625 18.5 27.476562 18.726562 27.765625 19.015625 C 28.054688 19.304688 28.277344 19.640625 28.433594 20.015625 C 28.589844 20.394531 28.667969 20.789062 28.667969 21.199219 C 28.667969 21.609375 28.589844 22.003906 28.433594 22.378906 C 28.277344 22.757812 28.050781 23.09375 27.761719 23.382812 C 27.472656 23.671875 27.140625 23.894531 26.761719 24.050781 C 26.382812 24.207031 25.988281 24.285156 25.578125 24.289062 Z M 25.578125 24.289062 " fill-opacity="1" fill-rule="nonzero"/><path fill="#ffffff" d="M 27 21.199219 C 27 21.386719 26.964844 21.570312 26.890625 21.742188 C 26.820312 21.917969 26.71875 22.070312 26.585938 22.203125 C 26.449219 22.335938 26.296875 22.441406 26.125 22.511719 C 25.949219 22.585938 25.769531 22.621094 25.578125 22.621094 C 25.390625 22.621094 25.210938 22.585938 25.035156 22.511719 C 24.863281 22.441406 24.707031 22.335938 24.574219 22.203125 C 24.441406 22.070312 24.339844 21.917969 24.265625 21.742188 C 24.195312 21.570312 24.160156 21.386719 24.160156 21.199219 C 24.160156 21.011719 24.195312 20.828125 24.265625 20.65625 C 24.339844 20.480469 24.441406 20.328125 24.574219 20.195312 C 24.707031 20.0625 24.863281 19.957031 25.035156 19.886719 C 25.210938 19.816406 25.390625 19.777344 25.578125 19.777344 C 25.769531 19.777344 25.949219 19.816406 26.125 19.886719 C 26.296875 19.960938 26.449219 20.0625 26.585938 20.195312 C 26.71875 20.328125 26.820312 20.480469 26.890625 20.65625 C 26.964844 20.828125 27 21.011719 27 21.199219 Z M 27 21.199219 " fill-opacity="1" fill-rule="nonzero"/><path fill="#ffffff" d="M 16.960938 21.199219 C 16.960938 21.386719 16.921875 21.570312 16.851562 21.742188 C 16.78125 21.917969 16.675781 22.070312 16.542969 22.203125 C 16.410156 22.335938 16.257812 22.441406 16.082031 22.511719 C 15.910156 22.585938 15.726562 22.621094 15.539062 22.621094 C 15.351562 22.621094 15.167969 22.585938 14.996094 22.511719 C 14.820312 22.441406 14.667969 22.335938 14.535156 22.203125 C 14.402344 22.070312 14.296875 21.917969 14.226562 21.742188 C 14.152344 21.570312 14.117188 21.386719 14.117188 21.199219 C 14.117188 21.011719 14.152344 20.828125 14.226562 20.65625 C 14.296875 20.480469 14.402344 20.328125 14.535156 20.195312 C 14.667969 20.0625 14.820312 19.957031 14.996094 19.886719 C 15.171875 19.8125 15.351562 19.777344 15.539062 19.777344 C 15.726562 19.777344 15.910156 19.816406 16.082031 19.886719 C 16.257812 19.960938 16.410156 20.0625 16.542969 20.195312 C 16.675781 20.328125 16.78125 20.480469 16.851562 20.65625 C 16.921875 20.828125 16.960938 21.011719 16.960938 21.199219 Z M 16.960938 21.199219 " fill-opacity="1" fill-rule="nonzero"/><g clip-path="url(#224e234a8e)"><path fill="#ffffff" d="M 10.417969 35.890625 L 10.417969 48.328125 L 3.113281 48.328125 L 3.113281 43.84375 C 3.113281 43.351562 3.160156 42.859375 3.253906 42.371094 C 3.34375 41.886719 3.480469 41.410156 3.660156 40.949219 C 3.839844 40.488281 4.0625 40.046875 4.324219 39.625 C 4.585938 39.207031 4.882812 38.8125 5.21875 38.449219 C 5.554688 38.082031 5.921875 37.753906 6.316406 37.457031 C 6.714844 37.160156 7.132812 36.902344 7.578125 36.683594 C 8.023438 36.464844 8.484375 36.289062 8.960938 36.152344 C 9.4375 36.019531 9.921875 35.933594 10.417969 35.890625 Z M 10.417969 35.890625 " fill-opacity="1" fill-rule="nonzero"/></g><g clip-path="url(#d29031d596)"><path fill="#ffffff" d="M 12.085938 35.859375 L 29.035156 35.859375 L 29.035156 48.328125 L 12.085938 48.328125 Z M 12.085938 35.859375 " fill-opacity="1" fill-rule="nonzero"/></g><g clip-path="url(#283463afd8)"><path fill="#ffffff" d="M 38.003906 43.84375 L 38.003906 48.328125 L 30.707031 48.328125 L 30.707031 35.890625 C 31.203125 35.933594 31.6875 36.023438 32.164062 36.15625 C 32.640625 36.289062 33.101562 36.464844 33.542969 36.683594 C 33.988281 36.902344 34.410156 37.160156 34.804688 37.457031 C 35.203125 37.753906 35.566406 38.085938 35.902344 38.449219 C 36.238281 38.816406 36.535156 39.207031 36.796875 39.628906 C 37.058594 40.046875 37.28125 40.488281 37.460938 40.949219 C 37.640625 41.414062 37.773438 41.886719 37.867188 42.371094 C 37.957031 42.859375 38.003906 43.351562 38.003906 43.84375 Z M 38.003906 43.84375 " fill-opacity="1" fill-rule="nonzero"/></g><path fill="#ffffff" d="M 14.804688 31 L 26.316406 31 L 26.316406 34.191406 L 14.804688 34.191406 Z M 14.804688 31 " fill-opacity="1" fill-rule="nonzero"/><path fill="#ffffff" d="M 8.269531 18.277344 L 8.269531 26.566406 C 7.847656 26.484375 7.445312 26.335938 7.066406 26.128906 C 6.6875 25.921875 6.351562 25.660156 6.050781 25.351562 C 5.753906 25.039062 5.507812 24.6875 5.316406 24.300781 C 5.121094 23.917969 4.992188 23.507812 4.925781 23.082031 C 4.859375 22.65625 4.855469 22.230469 4.917969 21.804688 C 4.984375 21.375 5.109375 20.96875 5.296875 20.578125 C 5.484375 20.191406 5.726562 19.839844 6.023438 19.527344 C 6.316406 19.210938 6.652344 18.949219 7.03125 18.738281 C 7.417969 18.519531 7.832031 18.363281 8.269531 18.277344 Z M 8.269531 18.277344 " fill-opacity="1" fill-rule="nonzero"/><path fill="#ffffff" d="M 36.246094 22.421875 C 36.246094 22.910156 36.164062 23.382812 36 23.84375 C 35.832031 24.304688 35.597656 24.722656 35.289062 25.101562 C 34.976562 25.480469 34.613281 25.792969 34.195312 26.046875 C 33.777344 26.296875 33.328125 26.472656 32.851562 26.570312 L 32.851562 18.277344 C 33.289062 18.363281 33.703125 18.515625 34.089844 18.734375 C 34.753906 19.109375 35.28125 19.628906 35.667969 20.285156 C 36.050781 20.945312 36.246094 21.660156 36.246094 22.421875 Z M 36.246094 22.421875 " fill-opacity="1" fill-rule="nonzero"/><path fill="#ffffff" d="M 24.785156 13.84375 L 16.335938 13.84375 C 16.429688 13.355469 16.605469 12.898438 16.863281 12.46875 C 17.117188 12.039062 17.4375 11.667969 17.824219 11.351562 C 18.210938 11.035156 18.636719 10.792969 19.105469 10.625 C 19.578125 10.457031 20.0625 10.371094 20.558594 10.371094 C 21.058594 10.371094 21.542969 10.457031 22.011719 10.625 C 22.480469 10.792969 22.910156 11.035156 23.292969 11.351562 C 23.679688 11.667969 24 12.039062 24.257812 12.46875 C 24.511719 12.898438 24.6875 13.355469 24.785156 13.84375 Z M 24.785156 13.84375 " fill-opacity="1" fill-rule="nonzero"/><g clip-path="url(#051f7f1351)"><path fill="#ffffff" d="M 21.707031 3.1875 C 21.707031 3.339844 21.675781 3.484375 21.621094 3.625 C 21.5625 3.765625 21.476562 3.890625 21.371094 3.996094 C 21.261719 4.105469 21.140625 4.1875 21 4.246094 C 20.859375 4.304688 20.710938 4.332031 20.558594 4.332031 C 20.40625 4.332031 20.261719 4.304688 20.121094 4.246094 C 19.980469 4.1875 19.855469 4.105469 19.75 3.996094 C 19.640625 3.890625 19.558594 3.765625 19.5 3.625 C 19.441406 3.484375 19.414062 3.339844 19.414062 3.1875 C 19.414062 3.035156 19.441406 2.886719 19.5 2.746094 C 19.558594 2.605469 19.640625 2.484375 19.75 2.375 C 19.855469 2.269531 19.980469 2.183594 20.121094 2.125 C 20.261719 2.070312 20.40625 2.039062 20.558594 2.039062 C 20.710938 2.039062 20.859375 2.070312 21 2.125 C 21.140625 2.183594 21.261719 2.269531 21.371094 2.375 C 21.476562 2.484375 21.5625 2.605469 21.621094 2.746094 C 21.675781 2.886719 21.707031 3.035156 21.707031 3.1875 Z M 21.707031 3.1875 " fill-opacity="1" fill-rule="nonzero"/></g><path fill="#ffffff" d="M 21.394531 5.875 L 21.394531 8.761719 C 20.835938 8.683594 20.28125 8.683594 19.726562 8.761719 L 19.726562 5.875 C 20.28125 6.046875 20.835938 6.046875 21.394531 5.875 Z M 21.394531 5.875 " fill-opacity="1" fill-rule="nonzero"/><g transform="matrix(1, 0, 0, 1, 46, 8)"><g clip-path="url(#f7f119c4c8)"><g fill="#ffffff" fill-opacity="1"><g transform="translate(0.819957, 36.705576)"><g><path d="M 29.875 0 L 29.84375 -17.4375 L 21.296875 -3.078125 L 18.265625 -3.078125 L 9.75 -17.0625 L 9.75 0 L 3.4375 0 L 3.4375 -29.046875 L 9 -29.046875 L 19.875 -11 L 30.578125 -29.046875 L 36.109375 -29.046875 L 36.1875 0 Z M 29.875 0 "/></g></g></g><g fill="#ffffff" fill-opacity="1"><g transform="translate(40.448556, 36.705576)"><g><path d="M 24.859375 -11.078125 C 24.859375 -10.992188 24.816406 -10.414062 24.734375 -9.34375 L 7.84375 -9.34375 C 8.144531 -7.957031 8.863281 -6.863281 10 -6.0625 C 11.132812 -5.257812 12.546875 -4.859375 14.234375 -4.859375 C 15.398438 -4.859375 16.429688 -5.03125 17.328125 -5.375 C 18.222656 -5.71875 19.0625 -6.265625 19.84375 -7.015625 L 23.28125 -3.28125 C 21.175781 -0.875 18.101562 0.328125 14.0625 0.328125 C 11.550781 0.328125 9.328125 -0.160156 7.390625 -1.140625 C 5.453125 -2.117188 3.957031 -3.476562 2.90625 -5.21875 C 1.851562 -6.96875 1.328125 -8.945312 1.328125 -11.15625 C 1.328125 -13.34375 1.84375 -15.316406 2.875 -17.078125 C 3.914062 -18.835938 5.34375 -20.207031 7.15625 -21.1875 C 8.96875 -22.164062 10.992188 -22.65625 13.234375 -22.65625 C 15.421875 -22.65625 17.398438 -22.1875 19.171875 -21.25 C 20.941406 -20.3125 22.332031 -18.960938 23.34375 -17.203125 C 24.351562 -15.441406 24.859375 -13.398438 24.859375 -11.078125 Z M 13.28125 -17.765625 C 11.8125 -17.765625 10.578125 -17.347656 9.578125 -16.515625 C 8.585938 -15.679688 7.984375 -14.546875 7.765625 -13.109375 L 18.765625 -13.109375 C 18.535156 -14.523438 17.921875 -15.65625 16.921875 -16.5 C 15.929688 -17.34375 14.71875 -17.765625 13.28125 -17.765625 Z M 13.28125 -17.765625 "/></g></g></g><g fill="#ffffff" fill-opacity="1"><g transform="translate(66.010038, 36.705576)"><g><path d="M 12 -22.65625 C 15.457031 -22.65625 18.109375 -21.832031 19.953125 -20.1875 C 21.804688 -18.539062 22.734375 -16.054688 22.734375 -12.734375 L 22.734375 0 L 16.6875 0 L 16.6875 -2.78125 C 15.46875 -0.707031 13.195312 0.328125 9.875 0.328125 C 8.15625 0.328125 6.664062 0.0390625 5.40625 -0.53125 C 4.15625 -1.113281 3.195312 -1.914062 2.53125 -2.9375 C 1.863281 -3.96875 1.53125 -5.132812 1.53125 -6.4375 C 1.53125 -8.507812 2.3125 -10.140625 3.875 -11.328125 C 5.4375 -12.515625 7.851562 -13.109375 11.125 -13.109375 L 16.265625 -13.109375 C 16.265625 -14.523438 15.832031 -15.613281 14.96875 -16.375 C 14.113281 -17.132812 12.832031 -17.515625 11.125 -17.515625 C 9.9375 -17.515625 8.765625 -17.328125 7.609375 -16.953125 C 6.460938 -16.578125 5.488281 -16.070312 4.6875 -15.4375 L 2.359375 -19.96875 C 3.578125 -20.820312 5.035156 -21.484375 6.734375 -21.953125 C 8.441406 -22.421875 10.195312 -22.65625 12 -22.65625 Z M 11.5 -4.03125 C 12.601562 -4.03125 13.582031 -4.285156 14.4375 -4.796875 C 15.300781 -5.304688 15.910156 -6.0625 16.265625 -7.0625 L 16.265625 -9.34375 L 11.828125 -9.34375 C 9.171875 -9.34375 7.84375 -8.46875 7.84375 -6.71875 C 7.84375 -5.894531 8.164062 -5.238281 8.8125 -4.75 C 9.46875 -4.269531 10.363281 -4.03125 11.5 -4.03125 Z M 11.5 -4.03125 "/></g></g></g><g fill="#ffffff" fill-opacity="1"><g transform="translate(91.613032, 36.705576)"><g><path d="M 10.5 0.328125 C 8.644531 0.328125 6.832031 0.101562 5.0625 -0.34375 C 3.289062 -0.800781 1.878906 -1.378906 0.828125 -2.078125 L 2.984375 -6.71875 C 3.984375 -6.082031 5.1875 -5.5625 6.59375 -5.15625 C 8.007812 -4.757812 9.394531 -4.5625 10.75 -4.5625 C 13.488281 -4.5625 14.859375 -5.238281 14.859375 -6.59375 C 14.859375 -7.226562 14.484375 -7.6875 13.734375 -7.96875 C 12.984375 -8.25 11.835938 -8.484375 10.296875 -8.671875 C 8.460938 -8.953125 6.953125 -9.269531 5.765625 -9.625 C 4.578125 -9.988281 3.546875 -10.625 2.671875 -11.53125 C 1.804688 -12.445312 1.375 -13.75 1.375 -15.4375 C 1.375 -16.84375 1.78125 -18.09375 2.59375 -19.1875 C 3.40625 -20.28125 4.59375 -21.128906 6.15625 -21.734375 C 7.71875 -22.347656 9.566406 -22.65625 11.703125 -22.65625 C 13.273438 -22.65625 14.84375 -22.484375 16.40625 -22.140625 C 17.976562 -21.796875 19.273438 -21.316406 20.296875 -20.703125 L 18.140625 -16.109375 C 16.171875 -17.210938 14.023438 -17.765625 11.703125 -17.765625 C 10.316406 -17.765625 9.273438 -17.566406 8.578125 -17.171875 C 7.890625 -16.785156 7.546875 -16.289062 7.546875 -15.6875 C 7.546875 -15 7.921875 -14.515625 8.671875 -14.234375 C 9.421875 -13.953125 10.613281 -13.691406 12.25 -13.453125 C 14.070312 -13.140625 15.5625 -12.8125 16.71875 -12.46875 C 17.882812 -12.125 18.894531 -11.492188 19.75 -10.578125 C 20.613281 -9.671875 21.046875 -8.398438 21.046875 -6.765625 C 21.046875 -5.378906 20.628906 -4.144531 19.796875 -3.0625 C 18.960938 -1.988281 17.75 -1.15625 16.15625 -0.5625 C 14.570312 0.03125 12.6875 0.328125 10.5 0.328125 Z M 10.5 0.328125 "/></g></g></g><g fill="#ffffff" fill-opacity="1"><g transform="translate(113.647366, 36.705576)"><g><path d="M 25.484375 -22.328125 L 25.484375 0 L 19.34375 0 L 19.34375 -2.65625 C 18.476562 -1.6875 17.453125 -0.945312 16.265625 -0.4375 C 15.078125 0.0703125 13.789062 0.328125 12.40625 0.328125 C 9.476562 0.328125 7.15625 -0.515625 5.4375 -2.203125 C 3.71875 -3.890625 2.859375 -6.394531 2.859375 -9.71875 L 2.859375 -22.328125 L 9.34375 -22.328125 L 9.34375 -10.671875 C 9.34375 -7.066406 10.847656 -5.265625 13.859375 -5.265625 C 15.410156 -5.265625 16.65625 -5.769531 17.59375 -6.78125 C 18.53125 -7.789062 19 -9.289062 19 -11.28125 L 19 -22.328125 Z M 25.484375 -22.328125 "/></g></g></g><g fill="#ffffff" fill-opacity="1"><g transform="translate(142.155056, 36.705576)"><g><path d="M 9.171875 -19.375 C 9.941406 -20.457031 10.984375 -21.273438 12.296875 -21.828125 C 13.617188 -22.378906 15.132812 -22.65625 16.84375 -22.65625 L 16.84375 -16.6875 C 16.125 -16.738281 15.640625 -16.765625 15.390625 -16.765625 C 13.535156 -16.765625 12.082031 -16.242188 11.03125 -15.203125 C 9.988281 -14.171875 9.46875 -12.617188 9.46875 -10.546875 L 9.46875 0 L 2.984375 0 L 2.984375 -22.328125 L 9.171875 -22.328125 Z M 9.171875 -19.375 "/></g></g></g><g fill="#ffffff" fill-opacity="1"><g transform="translate(159.666336, 36.705576)"><g><path d="M 24.859375 -11.078125 C 24.859375 -10.992188 24.816406 -10.414062 24.734375 -9.34375 L 7.84375 -9.34375 C 8.144531 -7.957031 8.863281 -6.863281 10 -6.0625 C 11.132812 -5.257812 12.546875 -4.859375 14.234375 -4.859375 C 15.398438 -4.859375 16.429688 -5.03125 17.328125 -5.375 C 18.222656 -5.71875 19.0625 -6.265625 19.84375 -7.015625 L 23.28125 -3.28125 C 21.175781 -0.875 18.101562 0.328125 14.0625 0.328125 C 11.550781 0.328125 9.328125 -0.160156 7.390625 -1.140625 C 5.453125 -2.117188 3.957031 -3.476562 2.90625 -5.21875 C 1.851562 -6.96875 1.328125 -8.945312 1.328125 -11.15625 C 1.328125 -13.34375 1.84375 -15.316406 2.875 -17.078125 C 3.914062 -18.835938 5.34375 -20.207031 7.15625 -21.1875 C 8.96875 -22.164062 10.992188 -22.65625 13.234375 -22.65625 C 15.421875 -22.65625 17.398438 -22.1875 19.171875 -21.25 C 20.941406 -20.3125 22.332031 -18.960938 23.34375 -17.203125 C 24.351562 -15.441406 24.859375 -13.398438 24.859375 -11.078125 Z M 13.28125 -17.765625 C 11.8125 -17.765625 10.578125 -17.347656 9.578125 -16.515625 C 8.585938 -15.679688 7.984375 -14.546875 7.765625 -13.109375 L 18.765625 -13.109375 C 18.535156 -14.523438 17.921875 -15.65625 16.921875 -16.5 C 15.929688 -17.34375 14.71875 -17.765625 13.28125 -17.765625 Z M 13.28125 -17.765625 "/></g></g></g><g fill="#ffffff" fill-opacity="1"><g transform="translate(185.85027, 36.705576)"><g><path d="M 2.984375 -30.796875 L 9.46875 -30.796875 L 9.46875 0 L 2.984375 0 Z M 2.984375 -30.796875 "/></g></g></g><g fill="#ffffff" fill-opacity="1"><g transform="translate(198.340541, 36.705576)"><g><path d="M 25.15625 -22.328125 L 15.0625 1.375 C 14.039062 3.945312 12.773438 5.757812 11.265625 6.8125 C 9.753906 7.863281 7.9375 8.390625 5.8125 8.390625 C 4.644531 8.390625 3.492188 8.207031 2.359375 7.84375 C 1.222656 7.476562 0.296875 6.976562 -0.421875 6.34375 L 1.953125 1.75 C 2.453125 2.1875 3.023438 2.53125 3.671875 2.78125 C 4.316406 3.03125 4.960938 3.15625 5.609375 3.15625 C 6.492188 3.15625 7.210938 2.941406 7.765625 2.515625 C 8.316406 2.085938 8.8125 1.375 9.25 0.375 L 9.34375 0.171875 L -0.328125 -22.328125 L 6.34375 -22.328125 L 12.609375 -7.171875 L 18.921875 -22.328125 Z M 25.15625 -22.328125 "/></g></g></g></g></g></svg>