<svg xmlns="http://www.w3.org/2000/svg" xmlns:xlink="http://www.w3.org/1999/xlink" width="100" zoomAndPan="magnify" viewBox="0 0 75 60" height="80" preserveAspectRatio="xMidYMid meet" version="1.0"><defs><clipPath id="4adc1894f1"><path d="M 0 20.640625 L 74.996094 20.640625 L 74.996094 52 L 0 52 Z M 0 20.640625 " clip-rule="nonzero"/></clipPath><clipPath id="601380ca98"><path d="M 67 21 L 74.996094 21 L 74.996094 52 L 67 52 Z M 67 21 " clip-rule="nonzero"/></clipPath><clipPath id="11b054d871"><path d="M 42 8.136719 L 47 8.136719 L 47 16 L 42 16 Z M 42 8.136719 " clip-rule="nonzero"/></clipPath><clipPath id="ad289b7d94"><path d="M 45 11 L 55.457031 11 L 55.457031 22 L 45 22 Z M 45 11 " clip-rule="nonzero"/></clipPath><clipPath id="b06b32adda"><path d="M 19.457031 18 L 29 18 L 29 38 L 19.457031 38 Z M 19.457031 18 " clip-rule="nonzero"/></clipPath><clipPath id="4cb13c1e83"><path d="M 51 11 L 55.457031 11 L 55.457031 22 L 51 22 Z M 51 11 " clip-rule="nonzero"/></clipPath></defs><g clip-path="url(#4adc1894f1)"><path fill="#ffffff" d="M 67.09375 50.929688 C 67.484375 51.46875 68.085938 51.84375 68.773438 51.84375 L 70.542969 51.84375 C 72.988281 51.84375 74.980469 49.851562 74.980469 47.40625 L 74.980469 25.0625 C 74.980469 22.636719 72.988281 20.640625 70.542969 20.640625 L 68.789062 20.640625 C 67.875 20.640625 67.109375 21.253906 66.871094 22.09375 C 66.421875 21.253906 65.566406 20.640625 64.574219 20.640625 L 39.863281 20.640625 C 38.800781 20.640625 37.871094 21.332031 37.496094 22.246094 C 37.105469 21.332031 36.191406 20.640625 35.125 20.640625 L 10.414062 20.640625 C 9.425781 20.640625 8.496094 21.253906 8.121094 22.09375 C 7.894531 21.253906 7.132812 20.640625 6.203125 20.640625 L 4.449219 20.640625 C 2.003906 20.640625 0.0078125 22.636719 0.0078125 25.078125 L 0.0078125 47.421875 C 0.0078125 49.867188 2.003906 51.859375 4.449219 51.859375 L 6.203125 51.859375 C 6.890625 51.859375 7.507812 51.46875 7.882812 50.945312 C 8.03125 51.484375 8.496094 51.859375 9.035156 51.859375 L 66.03125 51.859375 C 66.570312 51.859375 67.019531 51.46875 67.09375 50.929688 Z M 67.09375 50.929688 " fill-opacity="1" fill-rule="nonzero"/></g><g clip-path="url(#601380ca98)"><path fill="#8c52ff" d="M 68.789062 21.105469 L 70.542969 21.105469 C 72.761719 21.105469 74.59375 22.933594 74.59375 25.152344 L 74.59375 47.421875 C 74.59375 48.484375 74.203125 49.492188 73.4375 50.253906 C 72.671875 51.019531 71.683594 51.410156 70.605469 51.410156 L 68.847656 51.410156 C 67.933594 51.410156 67.246094 50.644531 67.246094 49.804688 L 67.246094 22.636719 C 67.183594 21.796875 67.875 21.105469 68.789062 21.105469 Z M 68.789062 21.105469 " fill-opacity="1" fill-rule="nonzero"/></g><path fill="#8c52ff" d="M 39.175781 48.410156 C 38.335938 48.410156 37.644531 47.722656 37.644531 46.882812 L 37.644531 43.898438 C 37.644531 42.066406 39.175781 40.539062 41.003906 40.539062 L 63.347656 40.539062 C 65.175781 40.539062 66.707031 42.066406 66.707031 43.898438 L 66.707031 46.882812 C 66.707031 47.722656 66.015625 48.410156 65.175781 48.410156 Z M 39.175781 48.410156 " fill-opacity="1" fill-rule="nonzero"/><path fill="#8c52ff" d="M 37.03125 47.722656 C 36.730469 48.109375 36.265625 48.410156 35.800781 48.410156 L 9.710938 48.410156 C 8.871094 48.410156 8.179688 47.722656 8.179688 46.882812 L 8.179688 43.898438 C 8.179688 42.066406 9.710938 40.539062 11.539062 40.539062 L 33.898438 40.539062 C 35.726562 40.539062 37.253906 42.066406 37.253906 43.898438 L 37.253906 46.882812 C 37.269531 47.179688 37.195312 47.421875 37.03125 47.722656 C 37.03125 47.644531 37.03125 47.722656 37.03125 47.722656 Z M 37.03125 47.722656 " fill-opacity="1" fill-rule="nonzero"/><path fill="#8c52ff" d="M 39.863281 21.105469 L 64.574219 21.105469 C 65.804688 21.105469 66.796875 22.09375 66.796875 23.324219 L 66.796875 42.292969 C 66.71875 42.144531 66.644531 41.992188 66.570312 41.828125 C 66.421875 41.679688 66.34375 41.527344 66.179688 41.363281 C 66.105469 41.289062 66.105469 41.289062 66.03125 41.214844 C 65.878906 41.0625 65.804688 40.988281 65.640625 40.914062 C 65.566406 40.914062 65.566406 40.839844 65.492188 40.839844 C 65.339844 40.6875 65.101562 40.613281 64.949219 40.539062 C 64.875 40.539062 64.875 40.539062 64.800781 40.464844 C 64.652344 40.390625 64.5 40.3125 64.261719 40.3125 C 64.1875 40.3125 64.109375 40.3125 64.109375 40.238281 C 63.886719 40.164062 63.644531 40.164062 63.421875 40.164062 L 41.078125 40.164062 C 40.855469 40.164062 40.613281 40.164062 40.390625 40.238281 C 40.316406 40.238281 40.238281 40.238281 40.238281 40.3125 C 40.089844 40.390625 39.941406 40.390625 39.699219 40.464844 C 39.625 40.464844 39.625 40.464844 39.550781 40.539062 C 39.324219 40.613281 39.160156 40.6875 39.011719 40.839844 C 38.933594 40.839844 38.933594 40.914062 38.859375 40.914062 C 38.710938 40.988281 38.558594 41.136719 38.46875 41.214844 C 38.394531 41.289062 38.394531 41.289062 38.320312 41.363281 C 38.171875 41.511719 38.019531 41.664062 37.929688 41.828125 C 37.855469 41.976562 37.78125 42.128906 37.707031 42.292969 L 37.707031 23.324219 C 37.644531 22.09375 38.648438 21.105469 39.863281 21.105469 Z M 39.863281 21.105469 " fill-opacity="1" fill-rule="nonzero"/><path fill="#8c52ff" d="M 10.414062 21.105469 L 35.125 21.105469 C 36.355469 21.105469 37.347656 22.09375 37.347656 23.324219 L 37.347656 42.292969 C 37.269531 42.144531 37.195312 41.992188 37.121094 41.828125 C 36.972656 41.679688 36.894531 41.527344 36.730469 41.363281 C 36.65625 41.289062 36.65625 41.289062 36.582031 41.214844 C 36.429688 41.0625 36.355469 40.988281 36.191406 40.914062 C 36.117188 40.914062 36.117188 40.839844 36.042969 40.839844 C 35.890625 40.6875 35.652344 40.613281 35.5 40.539062 C 35.425781 40.539062 35.425781 40.539062 35.351562 40.464844 C 35.203125 40.390625 35.050781 40.3125 34.8125 40.3125 C 34.738281 40.3125 34.660156 40.3125 34.660156 40.238281 C 34.4375 40.164062 34.195312 40.164062 33.972656 40.164062 L 11.628906 40.164062 C 11.40625 40.164062 11.164062 40.164062 10.941406 40.238281 C 10.867188 40.238281 10.789062 40.238281 10.789062 40.3125 C 10.640625 40.390625 10.492188 40.390625 10.25 40.464844 C 10.175781 40.464844 10.175781 40.464844 10.101562 40.539062 C 9.875 40.613281 9.710938 40.6875 9.5625 40.839844 C 9.484375 40.839844 9.484375 40.914062 9.410156 40.914062 C 9.261719 40.988281 9.109375 41.136719 9.019531 41.214844 C 8.945312 41.289062 8.945312 41.289062 8.871094 41.363281 C 8.722656 41.511719 8.570312 41.664062 8.480469 41.828125 C 8.40625 41.976562 8.332031 42.128906 8.257812 42.292969 L 8.257812 23.324219 C 8.195312 22.09375 9.1875 21.105469 10.414062 21.105469 Z M 10.414062 21.105469 " fill-opacity="1" fill-rule="nonzero"/><path fill="#8c52ff" d="M 6.203125 51.46875 L 4.449219 51.46875 C 2.226562 51.46875 0.398438 49.640625 0.398438 47.421875 L 0.398438 25.078125 C 0.398438 22.859375 2.226562 21.03125 4.449219 21.03125 L 6.203125 21.03125 C 7.117188 21.03125 7.804688 21.796875 7.804688 22.636719 L 7.804688 49.867188 C 7.804688 50.78125 7.042969 51.46875 6.203125 51.46875 Z M 6.203125 51.46875 " fill-opacity="1" fill-rule="nonzero"/><path fill="#8c52ff" d="M 8.960938 51.46875 C 8.496094 51.46875 8.121094 51.078125 8.121094 50.628906 L 8.121094 47.960938 L 8.195312 48.035156 C 8.269531 48.109375 8.269531 48.1875 8.347656 48.1875 C 8.421875 48.1875 8.421875 48.261719 8.496094 48.261719 C 8.570312 48.335938 8.644531 48.335938 8.722656 48.410156 C 8.796875 48.410156 8.796875 48.484375 8.871094 48.484375 C 8.945312 48.484375 9.019531 48.5625 9.097656 48.5625 C 9.171875 48.5625 9.171875 48.5625 9.246094 48.636719 C 9.394531 48.636719 9.546875 48.710938 9.636719 48.710938 L 35.726562 48.710938 C 35.875 48.710938 36.027344 48.710938 36.191406 48.636719 C 36.265625 48.636719 36.265625 48.636719 36.339844 48.636719 C 36.492188 48.5625 36.566406 48.5625 36.730469 48.484375 C 36.730469 48.484375 36.804688 48.484375 36.804688 48.410156 C 36.957031 48.335938 37.03125 48.261719 37.195312 48.109375 L 37.269531 48.035156 C 37.347656 47.960938 37.421875 47.8125 37.496094 47.734375 C 37.496094 47.734375 37.496094 47.660156 37.570312 47.660156 C 37.570312 47.660156 37.570312 47.734375 37.644531 47.734375 C 37.71875 47.8125 37.796875 47.960938 37.871094 48.035156 L 37.945312 48.109375 C 38.019531 48.1875 38.171875 48.335938 38.335938 48.410156 C 38.335938 48.410156 38.410156 48.410156 38.410156 48.484375 C 38.484375 48.5625 38.636719 48.636719 38.800781 48.636719 C 38.875 48.636719 38.875 48.636719 38.949219 48.636719 C 39.101562 48.710938 39.25 48.710938 39.414062 48.710938 L 65.503906 48.710938 C 65.65625 48.710938 65.804688 48.710938 65.894531 48.636719 C 65.96875 48.636719 65.96875 48.636719 66.046875 48.5625 C 66.121094 48.5625 66.195312 48.484375 66.269531 48.484375 C 66.34375 48.484375 66.34375 48.410156 66.421875 48.410156 C 66.496094 48.335938 66.570312 48.335938 66.644531 48.261719 C 66.71875 48.261719 66.71875 48.1875 66.796875 48.1875 C 66.871094 48.109375 66.945312 48.035156 66.945312 48.035156 L 67.019531 47.960938 L 67.019531 50.628906 C 67.019531 51.09375 66.628906 51.46875 66.179688 51.46875 Z M 8.960938 51.46875 " fill-opacity="1" fill-rule="nonzero"/><g clip-path="url(#11b054d871)"><path fill="#46404c" d="M 42.328125 14.183594 C 42.328125 14.183594 42.519531 9.144531 43.789062 8.640625 C 45.054688 8.136719 46.070312 8.765625 46.386719 9.648438 C 46.703125 10.53125 47.082031 12.546875 46.957031 13.617188 C 46.828125 14.6875 46.511719 15.882812 46.511719 15.882812 Z M 42.328125 14.183594 " fill-opacity="1" fill-rule="nonzero"/></g><path fill="#525675" d="M 38.140625 29.753906 C 38.140625 29.753906 40.832031 14.390625 42.308594 13.636719 C 43.789062 12.878906 46.476562 12.96875 47.015625 14.304688 C 47.550781 15.640625 47.820312 32.695312 47.820312 32.695312 Z M 38.140625 29.753906 " fill-opacity="1" fill-rule="nonzero"/><g clip-path="url(#ad289b7d94)"><path fill="#46404c" d="M 47.273438 16.199219 C 47.273438 16.199219 48.667969 16.574219 49.363281 16.199219 C 50.0625 15.820312 52.40625 11.539062 53.738281 11.285156 C 55.070312 11.035156 55.449219 11.851562 55.449219 11.851562 C 55.324219 11.886719 53.941406 20.367188 52.789062 21.675781 C 49.871094 21.425781 45.878906 20.417969 45.878906 20.417969 Z M 47.273438 16.199219 " fill-opacity="1" fill-rule="nonzero"/></g><path fill="#5a628b" d="M 34.734375 30.066406 C 34.734375 30.066406 32.628906 20.582031 32.941406 20.226562 C 33.257812 19.871094 46.96875 21.25 46.96875 21.25 C 46.96875 21.25 48.539062 18.355469 48 16.394531 C 38.050781 13.8125 28.460938 12.078125 26.488281 13.191406 C 24.515625 14.304688 24.425781 16.839844 24.5625 19.335938 C 24.695312 21.828125 25.234375 33.007812 25.234375 33.007812 Z M 34.734375 30.066406 " fill-opacity="1" fill-rule="nonzero"/><path fill="#ffb380" d="M 46.449219 20.773438 C 46.21875 20.546875 46.046875 20.230469 45.832031 19.980469 C 45.601562 19.714844 45.222656 19.617188 44.992188 19.355469 C 44.621094 18.929688 44.484375 18.480469 44.238281 17.996094 C 44.183594 17.882812 43.964844 17.390625 43.796875 17.171875 C 43.714844 17.0625 43.851562 16.929688 43.960938 16.890625 C 44.496094 16.695312 45.09375 18.003906 45.121094 17.589844 C 45.121094 17.257812 44.726562 16.445312 44.546875 16.144531 C 44.445312 15.976562 44.265625 15.792969 44.265625 15.578125 C 44.265625 15.457031 44.328125 15.273438 44.457031 15.230469 C 44.648438 15.164062 44.832031 15.257812 45.023438 15.410156 C 45.433594 15.738281 45.726562 16.210938 45.820312 16.425781 C 45.878906 16.570312 46.066406 16.746094 46.089844 16.550781 C 46.046875 16.367188 45.851562 15.925781 45.648438 15.589844 C 45.460938 15.289062 45.132812 15.300781 45.191406 15.007812 C 45.265625 14.589844 45.972656 14.765625 46.28125 15.078125 C 46.578125 15.375 46.746094 15.785156 47.105469 16.019531 C 47.027344 15.789062 46.925781 15.511719 46.785156 15.300781 C 46.714844 15.195312 46.578125 15.109375 46.53125 14.992188 C 46.503906 14.921875 46.453125 14.859375 46.617188 14.769531 C 46.777344 14.679688 47.1875 14.773438 47.59375 15.1875 C 48.464844 15.1875 49.09375 17.15625 49.175781 17.871094 C 49.21875 18.273438 49.332031 19.085938 49.425781 19.480469 C 48.960938 20.304688 47.460938 20.917969 46.449219 20.773438 Z M 46.449219 20.773438 " fill-opacity="1" fill-rule="nonzero"/><path fill="#ff8534" d="M 48.117188 16.007812 C 48.101562 16.007812 48.085938 15.996094 48.082031 15.980469 C 48.007812 15.769531 47.828125 15.554688 47.671875 15.367188 C 47.640625 15.332031 47.605469 15.292969 47.578125 15.253906 C 47.5625 15.238281 47.566406 15.210938 47.582031 15.199219 C 47.601562 15.183594 47.625 15.1875 47.640625 15.203125 C 47.671875 15.242188 47.703125 15.277344 47.734375 15.316406 C 47.898438 15.507812 48.082031 15.726562 48.15625 15.953125 C 48.164062 15.972656 48.152344 15.996094 48.132812 16.003906 C 48.128906 16.007812 48.125 16.007812 48.117188 16.007812 Z M 48.117188 16.007812 " fill-opacity="1" fill-rule="nonzero"/><path fill="#ffb380" d="M 25.714844 20.664062 C 25.941406 20.4375 26.113281 20.121094 26.328125 19.871094 C 26.558594 19.605469 26.9375 19.507812 27.167969 19.246094 C 27.542969 18.824219 27.679688 18.371094 27.925781 17.886719 C 27.980469 17.777344 28.199219 17.28125 28.367188 17.0625 C 28.449219 16.953125 28.3125 16.820312 28.203125 16.78125 C 27.667969 16.585938 27.066406 17.894531 27.042969 17.484375 C 27.042969 17.148438 27.433594 16.335938 27.617188 16.039062 C 27.71875 15.867188 27.894531 15.683594 27.894531 15.46875 C 27.894531 15.347656 27.835938 15.164062 27.707031 15.121094 C 27.515625 15.058594 27.332031 15.152344 27.140625 15.300781 C 26.726562 15.628906 26.4375 16.101562 26.34375 16.316406 C 26.28125 16.460938 26.097656 16.636719 26.070312 16.441406 C 26.117188 16.257812 26.308594 15.816406 26.515625 15.480469 C 26.699219 15.179688 27.027344 15.191406 26.972656 14.898438 C 26.894531 14.480469 26.1875 14.660156 25.882812 14.96875 C 25.585938 15.265625 25.414062 15.675781 25.058594 15.914062 C 25.132812 15.683594 25.238281 15.402344 25.378906 15.191406 C 25.449219 15.085938 25.585938 15 25.628906 14.882812 C 25.660156 14.8125 25.710938 14.75 25.546875 14.660156 C 25.382812 14.574219 24.972656 14.667969 24.566406 15.078125 C 23.695312 15.078125 23.066406 17.046875 22.988281 17.761719 C 22.941406 18.164062 22.832031 18.976562 22.738281 19.371094 C 23.203125 20.195312 24.703125 20.808594 25.714844 20.664062 Z M 25.714844 20.664062 " fill-opacity="1" fill-rule="nonzero"/><g clip-path="url(#b06b32adda)"><path fill="#d47a86" d="M 22.773438 18.75 C 23.9375 18.789062 25.65625 19.695312 26.15625 20.675781 C 25.945312 22.117188 25.402344 24.660156 25.09375 26.089844 C 24.6875 27.984375 28.710938 29.398438 28.3125 30.828125 C 28.164062 31.367188 30.703125 38.070312 26.617188 37.957031 C 24.335938 37.894531 19.46875 30.070312 19.589844 27.78125 C 19.765625 24.425781 20.234375 22.941406 21.714844 20.355469 C 22.085938 19.707031 22.417969 19.257812 22.773438 18.75 Z M 22.773438 18.75 " fill-opacity="1" fill-rule="nonzero"/></g><path fill="#d47a86" d="M 50.109375 18.75 C 48.945312 18.789062 47.226562 19.695312 46.726562 20.675781 C 46.9375 22.117188 47.480469 24.660156 47.789062 26.089844 C 48.195312 27.984375 44.171875 29.398438 44.570312 30.828125 C 44.71875 31.367188 42.179688 38.070312 46.265625 37.957031 C 48.546875 37.894531 53.414062 30.070312 53.292969 27.78125 C 53.117188 24.425781 52.648438 22.941406 51.167969 20.355469 C 50.796875 19.707031 50.464844 19.257812 50.109375 18.75 Z M 50.109375 18.75 " fill-opacity="1" fill-rule="nonzero"/><path fill="#ff8080" d="M 35.675781 29.117188 C 32.203125 29.308594 24.015625 28.414062 24.015625 33.597656 C 24.015625 34.695312 24.257812 35.707031 24.894531 36.628906 C 28.535156 41.886719 41.164062 40.75 45.929688 38.664062 C 50.851562 36.511719 49.984375 30.761719 44.992188 29.523438 C 43.304688 29.105469 41.582031 28.882812 39.835938 29 C 38.515625 29.085938 36.9375 29.457031 35.675781 29.117188 Z M 35.675781 29.117188 " fill-opacity="1" fill-rule="nonzero"/><path fill="#ffb380" d="M 36.5625 24.679688 C 36.300781 24.679688 36.058594 24.925781 35.933594 25.320312 C 32.941406 25.660156 30.671875 28.320312 30.667969 31.496094 C 30.671875 31.621094 30.679688 31.746094 30.695312 31.871094 C 28.417969 31.105469 30.433594 36.320312 31.324219 34.804688 C 31.371094 34.71875 31.414062 34.640625 31.453125 34.5625 C 32.496094 36.503906 34.445312 37.707031 36.5625 37.714844 C 39.015625 37.707031 41.207031 36.097656 42.066406 33.671875 C 42.097656 33.945312 42.148438 34.214844 42.296875 34.445312 C 42.914062 35.410156 43.355469 33.65625 43.378906 33.261719 C 43.40625 32.710938 43.324219 31.058594 42.441406 31.265625 C 42.328125 28.183594 40.09375 25.65625 37.191406 25.320312 C 37.066406 24.925781 36.824219 24.679688 36.5625 24.679688 Z M 36.5625 24.679688 " fill-opacity="1" fill-rule="nonzero"/><path fill="#502d16" d="M 36.96875 26.996094 C 35.5 26.960938 33.976562 27.367188 32.898438 28.082031 C 32.664062 28.238281 32.445312 28.40625 32.25 28.585938 C 32.128906 28.589844 32.011719 28.566406 31.910156 28.507812 C 31.464844 28.242188 31.148438 28.195312 30.835938 28.820312 C 30.597656 29.296875 30.332031 31.042969 30.558594 32.140625 C 30.394531 33.894531 30.945312 35.78125 32.0625 37.222656 C 33.261719 38.773438 35.46875 39.246094 37.3125 39.164062 C 41.300781 38.984375 42.992188 35.472656 42.554688 32.261719 C 42.828125 31.179688 42.550781 29.3125 42.304688 28.820312 C 41.988281 28.195312 41.675781 28.242188 41.226562 28.507812 C 41.105469 28.582031 40.964844 28.597656 40.820312 28.585938 C 40.421875 28.183594 39.964844 27.839844 39.441406 27.570312 C 38.710938 27.199219 37.847656 27.019531 36.96875 26.996094 Z M 36.96875 26.996094 " fill-opacity="1" fill-rule="nonzero"/><path fill="#ff8534" d="M 23.976562 15.976562 C 23.972656 15.976562 23.96875 15.972656 23.964844 15.972656 C 23.941406 15.964844 23.929688 15.941406 23.9375 15.921875 C 24.015625 15.695312 24.199219 15.476562 24.363281 15.285156 C 24.394531 15.246094 24.425781 15.207031 24.457031 15.171875 C 24.46875 15.15625 24.496094 15.152344 24.515625 15.167969 C 24.53125 15.179688 24.535156 15.207031 24.519531 15.222656 C 24.488281 15.261719 24.457031 15.296875 24.425781 15.335938 C 24.265625 15.523438 24.085938 15.734375 24.015625 15.945312 C 24.011719 15.964844 23.996094 15.976562 23.976562 15.976562 Z M 23.976562 15.976562 " fill-opacity="1" fill-rule="nonzero"/><g clip-path="url(#4cb13c1e83)"><path fill="#2a262d" d="M 54.738281 11.308594 C 54.277344 13.222656 52.78125 19.269531 51.753906 21.5625 C 52.109375 21.609375 52.453125 21.648438 52.789062 21.675781 C 53.941406 20.367188 55.324219 11.886719 55.449219 11.851562 C 55.449219 11.851562 55.273438 11.472656 54.738281 11.308594 Z M 54.738281 11.308594 " fill-opacity="1" fill-rule="nonzero"/></g></svg>