<svg xmlns="http://www.w3.org/2000/svg" xmlns:xlink="http://www.w3.org/1999/xlink" width="100" zoomAndPan="magnify" viewBox="0 0 75 37.5" height="50" preserveAspectRatio="xMidYMid meet" version="1.0"><defs><clipPath id="3e6d8eb641"><path d="M 0.492188 3.097656 L 74.503906 3.097656 L 74.503906 34 L 0.492188 34 Z M 0.492188 3.097656 " clip-rule="nonzero"/></clipPath><clipPath id="bef683f9cd"><path d="M 66 3.097656 L 74.503906 3.097656 L 74.503906 34 L 66 34 Z M 66 3.097656 " clip-rule="nonzero"/></clipPath><clipPath id="1a9c61cb26"><path d="M 37 3.097656 L 67 3.097656 L 67 25 L 37 25 Z M 37 3.097656 " clip-rule="nonzero"/></clipPath><clipPath id="b11a877eec"><path d="M 8 3.097656 L 38 3.097656 L 38 25 L 8 25 Z M 8 3.097656 " clip-rule="nonzero"/></clipPath><clipPath id="b86355a059"><path d="M 0.492188 3.097656 L 9 3.097656 L 9 34 L 0.492188 34 Z M 0.492188 3.097656 " clip-rule="nonzero"/></clipPath></defs><g clip-path="url(#3e6d8eb641)"><path fill="#ffffff" d="M 66.707031 32.988281 C 67.089844 33.523438 67.683594 33.890625 68.363281 33.890625 L 70.109375 33.890625 C 72.519531 33.890625 74.488281 31.925781 74.488281 29.511719 L 74.488281 7.464844 C 74.488281 5.066406 72.519531 3.097656 70.109375 3.097656 L 68.378906 3.097656 C 67.476562 3.097656 66.71875 3.707031 66.484375 4.535156 C 66.039062 3.707031 65.195312 3.097656 64.21875 3.097656 L 39.832031 3.097656 C 38.78125 3.097656 37.867188 3.78125 37.496094 4.683594 C 37.109375 3.78125 36.207031 3.097656 35.15625 3.097656 L 10.773438 3.097656 C 9.796875 3.097656 8.878906 3.707031 8.507812 4.535156 C 8.285156 3.707031 7.53125 3.097656 6.613281 3.097656 L 4.882812 3.097656 C 2.46875 3.097656 0.503906 5.066406 0.503906 7.480469 L 0.503906 29.527344 C 0.503906 31.9375 2.46875 33.90625 4.882812 33.90625 L 6.613281 33.90625 C 7.292969 33.90625 7.902344 33.523438 8.269531 33.003906 C 8.417969 33.539062 8.878906 33.90625 9.410156 33.90625 L 65.65625 33.90625 C 66.1875 33.90625 66.632812 33.523438 66.707031 32.988281 Z M 66.707031 32.988281 " fill-opacity="1" fill-rule="nonzero"/></g><g clip-path="url(#bef683f9cd)"><path fill="#8c52ff" d="M 68.378906 3.558594 L 70.109375 3.558594 C 72.300781 3.558594 74.105469 5.363281 74.105469 7.554688 L 74.105469 29.527344 C 74.105469 30.578125 73.71875 31.570312 72.964844 32.324219 C 72.210938 33.078125 71.234375 33.464844 70.167969 33.464844 L 68.4375 33.464844 C 67.535156 33.464844 66.855469 32.707031 66.855469 31.878906 L 66.855469 5.066406 C 66.792969 4.238281 67.476562 3.558594 68.378906 3.558594 Z M 68.378906 3.558594 " fill-opacity="1" fill-rule="nonzero"/></g><path fill="#8c52ff" d="M 39.152344 30.503906 C 38.324219 30.503906 37.644531 29.824219 37.644531 28.996094 L 37.644531 26.050781 C 37.644531 24.246094 39.152344 22.734375 40.957031 22.734375 L 63.007812 22.734375 C 64.8125 22.734375 66.320312 24.246094 66.320312 26.050781 L 66.320312 28.996094 C 66.320312 29.824219 65.640625 30.503906 64.8125 30.503906 Z M 39.152344 30.503906 " fill-opacity="1" fill-rule="nonzero"/><path fill="#8c52ff" d="M 37.035156 29.824219 C 36.742188 30.207031 36.28125 30.503906 35.824219 30.503906 L 10.078125 30.503906 C 9.246094 30.503906 8.566406 29.824219 8.566406 28.996094 L 8.566406 26.050781 C 8.566406 24.246094 10.078125 22.734375 11.882812 22.734375 L 33.945312 22.734375 C 35.75 22.734375 37.257812 24.246094 37.257812 26.050781 L 37.257812 28.996094 C 37.273438 29.289062 37.199219 29.527344 37.035156 29.824219 C 37.035156 29.75 37.035156 29.824219 37.035156 29.824219 Z M 37.035156 29.824219 " fill-opacity="1" fill-rule="nonzero"/><g clip-path="url(#1a9c61cb26)"><path fill="#8c52ff" d="M 39.832031 3.558594 L 64.21875 3.558594 C 65.433594 3.558594 66.410156 4.535156 66.410156 5.746094 L 66.410156 24.464844 C 66.335938 24.320312 66.261719 24.171875 66.1875 24.007812 C 66.039062 23.859375 65.964844 23.710938 65.804688 23.550781 C 65.730469 23.476562 65.730469 23.476562 65.65625 23.402344 C 65.507812 23.253906 65.433594 23.179688 65.269531 23.105469 C 65.195312 23.105469 65.195312 23.03125 65.121094 23.03125 C 64.972656 22.882812 64.738281 22.808594 64.589844 22.734375 C 64.515625 22.734375 64.515625 22.734375 64.441406 22.660156 C 64.292969 22.585938 64.144531 22.511719 63.910156 22.511719 C 63.835938 22.511719 63.761719 22.511719 63.761719 22.4375 C 63.539062 22.367188 63.300781 22.367188 63.082031 22.367188 L 41.03125 22.367188 C 40.808594 22.367188 40.574219 22.367188 40.351562 22.4375 C 40.277344 22.4375 40.203125 22.4375 40.203125 22.511719 C 40.054688 22.585938 39.90625 22.585938 39.671875 22.660156 C 39.597656 22.660156 39.597656 22.660156 39.523438 22.734375 C 39.300781 22.808594 39.136719 22.882812 38.992188 23.03125 C 38.917969 23.03125 38.917969 23.105469 38.84375 23.105469 C 38.695312 23.179688 38.546875 23.328125 38.457031 23.402344 C 38.382812 23.476562 38.382812 23.476562 38.308594 23.550781 C 38.160156 23.695312 38.015625 23.84375 37.925781 24.007812 C 37.851562 24.15625 37.777344 24.304688 37.703125 24.464844 L 37.703125 5.746094 C 37.644531 4.535156 38.636719 3.558594 39.832031 3.558594 Z M 39.832031 3.558594 " fill-opacity="1" fill-rule="nonzero"/></g><g clip-path="url(#b11a877eec)"><path fill="#8c52ff" d="M 10.773438 3.558594 L 35.15625 3.558594 C 36.371094 3.558594 37.347656 4.535156 37.347656 5.746094 L 37.347656 24.464844 C 37.273438 24.320312 37.199219 24.171875 37.125 24.007812 C 36.976562 23.859375 36.902344 23.710938 36.742188 23.550781 C 36.667969 23.476562 36.667969 23.476562 36.59375 23.402344 C 36.445312 23.253906 36.371094 23.179688 36.207031 23.105469 C 36.132812 23.105469 36.132812 23.03125 36.058594 23.03125 C 35.914062 22.882812 35.675781 22.808594 35.527344 22.734375 C 35.453125 22.734375 35.453125 22.734375 35.378906 22.660156 C 35.230469 22.585938 35.082031 22.511719 34.847656 22.511719 C 34.773438 22.511719 34.699219 22.511719 34.699219 22.4375 C 34.476562 22.367188 34.242188 22.367188 34.019531 22.367188 L 11.96875 22.367188 C 11.75 22.367188 11.511719 22.367188 11.289062 22.4375 C 11.214844 22.4375 11.140625 22.4375 11.140625 22.511719 C 10.992188 22.585938 10.847656 22.585938 10.609375 22.660156 C 10.535156 22.660156 10.535156 22.660156 10.460938 22.734375 C 10.238281 22.808594 10.078125 22.882812 9.929688 23.03125 C 9.855469 23.03125 9.855469 23.105469 9.78125 23.105469 C 9.632812 23.179688 9.484375 23.328125 9.394531 23.402344 C 9.320312 23.476562 9.320312 23.476562 9.246094 23.550781 C 9.101562 23.695312 8.953125 23.84375 8.863281 24.007812 C 8.789062 24.15625 8.714844 24.304688 8.640625 24.464844 L 8.640625 5.746094 C 8.582031 4.535156 9.558594 3.558594 10.773438 3.558594 Z M 10.773438 3.558594 " fill-opacity="1" fill-rule="nonzero"/></g><g clip-path="url(#b86355a059)"><path fill="#8c52ff" d="M 6.613281 33.523438 L 4.882812 33.523438 C 2.691406 33.523438 0.886719 31.71875 0.886719 29.527344 L 0.886719 7.480469 C 0.886719 5.289062 2.691406 3.484375 4.882812 3.484375 L 6.613281 3.484375 C 7.515625 3.484375 8.195312 4.238281 8.195312 5.066406 L 8.195312 31.9375 C 8.195312 32.84375 7.441406 33.523438 6.613281 33.523438 Z M 6.613281 33.523438 " fill-opacity="1" fill-rule="nonzero"/></g><path fill="#8c52ff" d="M 9.335938 33.523438 C 8.878906 33.523438 8.507812 33.136719 8.507812 32.695312 L 8.507812 30.058594 L 8.582031 30.132812 C 8.65625 30.207031 8.65625 30.28125 8.730469 30.28125 C 8.804688 30.28125 8.804688 30.355469 8.878906 30.355469 C 8.953125 30.429688 9.027344 30.429688 9.101562 30.503906 C 9.171875 30.503906 9.171875 30.578125 9.246094 30.578125 C 9.320312 30.578125 9.394531 30.652344 9.46875 30.652344 C 9.542969 30.652344 9.542969 30.652344 9.617188 30.726562 C 9.765625 30.726562 9.914062 30.800781 10.003906 30.800781 L 35.75 30.800781 C 35.898438 30.800781 36.046875 30.800781 36.207031 30.726562 C 36.28125 30.726562 36.28125 30.726562 36.355469 30.726562 C 36.503906 30.652344 36.578125 30.652344 36.742188 30.578125 C 36.742188 30.578125 36.816406 30.578125 36.816406 30.503906 C 36.964844 30.429688 37.035156 30.355469 37.199219 30.207031 L 37.273438 30.132812 C 37.347656 30.058594 37.421875 29.910156 37.496094 29.839844 C 37.496094 29.839844 37.496094 29.765625 37.570312 29.765625 C 37.570312 29.765625 37.570312 29.839844 37.644531 29.839844 C 37.71875 29.910156 37.792969 30.058594 37.867188 30.132812 L 37.941406 30.207031 C 38.015625 30.28125 38.160156 30.429688 38.324219 30.503906 C 38.324219 30.503906 38.398438 30.503906 38.398438 30.578125 C 38.472656 30.652344 38.621094 30.726562 38.78125 30.726562 C 38.855469 30.726562 38.855469 30.726562 38.929688 30.726562 C 39.078125 30.800781 39.226562 30.800781 39.390625 30.800781 L 65.136719 30.800781 C 65.285156 30.800781 65.433594 30.800781 65.523438 30.726562 C 65.597656 30.726562 65.597656 30.726562 65.667969 30.652344 C 65.742188 30.652344 65.816406 30.578125 65.890625 30.578125 C 65.964844 30.578125 65.964844 30.503906 66.039062 30.503906 C 66.113281 30.429688 66.1875 30.429688 66.261719 30.355469 C 66.335938 30.355469 66.335938 30.28125 66.410156 30.28125 C 66.484375 30.207031 66.558594 30.132812 66.558594 30.132812 L 66.632812 30.058594 L 66.632812 32.695312 C 66.632812 33.152344 66.246094 33.523438 65.804688 33.523438 Z M 9.335938 33.523438 " fill-opacity="1" fill-rule="nonzero"/></svg>