<svg xmlns="http://www.w3.org/2000/svg" xmlns:xlink="http://www.w3.org/1999/xlink" width="100" zoomAndPan="magnify" viewBox="0 0 75 74.999997" height="100" preserveAspectRatio="xMidYMid meet" version="1.0"><defs><clipPath id="cc2a531586"><path d="M 3.75 0 L 71.25 0 C 73.320312 0 75 1.679688 75 3.75 L 75 71.25 C 75 73.320312 73.320312 75 71.25 75 L 3.75 75 C 1.679688 75 0 73.320312 0 71.25 L 0 3.75 C 0 1.679688 1.679688 0 3.75 0 Z M 3.75 0 " clip-rule="nonzero"/></clipPath><clipPath id="ac6f75604a"><path d="M 0 0 L 75 0 L 75 75 L 0 75 Z M 0 0 " clip-rule="nonzero"/></clipPath><clipPath id="7212e1205c"><path d="M 3.75 0 L 71.25 0 C 73.320312 0 75 1.679688 75 3.75 L 75 71.25 C 75 73.320312 73.320312 75 71.25 75 L 3.75 75 C 1.679688 75 0 73.320312 0 71.25 L 0 3.75 C 0 1.679688 1.679688 0 3.75 0 Z M 3.75 0 " clip-rule="nonzero"/></clipPath><clipPath id="e1e902388d"><rect x="0" width="75" y="0" height="75"/></clipPath></defs><g clip-path="url(#cc2a531586)"><g transform="matrix(1, 0, 0, 1, 0, -0.000000000000001893)"><g clip-path="url(#e1e902388d)"><g clip-path="url(#ac6f75604a)"><g clip-path="url(#7212e1205c)"><rect x="-16.5" width="108" fill="#8c52ff" height="107.999996" y="-16.499999" fill-opacity="1"/></g></g></g></g></g></svg>