<svg viewBox="0 0 512 512" fill="currentColor" xmlns="http://www.w3.org/2000/svg">
  <path d="M192 96V64c0-17.7 14.3-32 32-32h64c17.7 
  0 32 14.3 32 32v32h96c17.7 0 32 14.3 
  32 32v48H64V128c0-17.7 14.3-32 32-32h96zm32 
  0h64V64h-64v32zM0 224c0-17.7 14.3-32 32-32h448c17.7 
  0 32 14.3 32 32v208c0 17.7-14.3 
  32-32 32H32c-17.7 0-32-14.3-32-32V224zm160 
  64c0 8.8 7.2 16 16 16h16v16c0 8.8 7.2 16 
  16 16h32c8.8 0 16-7.2 16-16v-16h16c8.8 
  0 16-7.2 16-16v-32H160v32zm192-32v32c0 
  8.8 7.2 16 16 16h16v16c0 8.8 7.2 16 
  16 16h32c8.8 0 16-7.2 16-16v-16h16c8.8 
  0 16-7.2 16-16v-32H352z"></path>
</svg>
